<?xml version="1.0" encoding="UTF-8"?>
<svg width="24" height="24" viewBox="0 0 24 24" fill="none" xmlns="http://www.w3.org/2000/svg">
    <path d="M12 1C5.925 1 1 5.925 1 12C1 18.075 5.925 23 12 23C18.075 23 23 18.075 23 12C23 5.925 18.075 1 12 1ZM12 21C7.037 21 3 16.963 3 12C3 7.037 7.037 3 12 3C16.963 3 21 7.037 21 12C21 16.963 16.963 21 12 21Z" fill="currentColor"/>
    <path d="M16 11H13V8C13 7.45 12.55 7 12 7C11.45 7 11 7.45 11 8V11H8C7.45 11 7 11.45 7 12C7 12.55 7.45 13 8 13H11V16C11 16.55 11.45 17 12 17C12.55 17 13 16.55 13 16V13H16C16.55 13 17 12.55 17 12C17 11.45 16.55 11 16 11Z" fill="currentColor"/>
</svg>
