<svg width="24" height="21" viewBox="0 0 24 21" fill="none" xmlns="http://www.w3.org/2000/svg">
<path d="M20.5875 9.60833C20.293 9.20292 19.1989 8.92375 18.736 8.19417C18.2731 7.46458 17.8942 5.88458 16.7161 5.2775C15.538 4.67042 13.2862 4.5 12.0004 4.5C10.7146 4.5 8.46451 4.66667 7.2848 5.27625C6.10509 5.88583 5.72779 7.46458 5.2649 8.19292C4.80202 8.92125 3.70789 9.20292 3.41336 9.60833C3.11883 10.0138 2.9115 12.5767 3.03767 13.8333C3.16384 15.09 3.3993 15.8333 3.3993 15.8333H6.85486C7.42061 15.8333 7.60464 15.6129 8.76185 15.5C10.0316 15.375 11.2772 15.3333 12.0004 15.3333C12.7237 15.3333 14.0095 15.375 15.2784 15.5C16.4356 15.6138 16.6257 15.8333 17.1854 15.8333H20.6008C20.6008 15.8333 20.8362 15.09 20.9624 13.8333C21.0886 12.5767 20.8804 10.0138 20.5875 9.60833ZM17.7865 15.8333H20.0366V16.5H17.7865V15.8333ZM3.96424 15.8333H6.21438V16.5H3.96424V15.8333Z" stroke="white" stroke-width="0.8" stroke-linecap="round" stroke-linejoin="round"/>
<path d="M16.3591 12.8723C16.1216 12.6276 15.3477 12.4234 14.3231 12.2866C13.2985 12.1497 12.9248 12.1142 12.0087 12.1142C11.0926 12.1142 10.6759 12.173 9.69388 12.2866C8.71185 12.4001 7.97453 12.6022 7.65831 12.8723C7.18377 13.2822 7.8789 13.7422 8.42456 13.7981C8.95334 13.8518 10.0105 13.8321 12.0131 13.8321C14.0157 13.8321 15.0729 13.8518 15.6017 13.7981C16.1465 13.739 16.7918 13.3108 16.3591 12.8723ZM19.0552 10.5038C19.053 10.4754 19.039 10.4486 19.016 10.4288C18.993 10.409 18.9626 10.3974 18.9307 10.3963C18.4561 10.3813 17.9744 10.4114 17.1197 10.636C16.6837 10.7495 16.2742 10.9323 15.9111 11.1756C15.8195 11.2393 15.852 11.4117 15.9669 11.4299C16.6714 11.5036 17.38 11.5407 18.0893 11.541C18.5148 11.541 18.954 11.4335 19.0356 11.0953C19.0771 10.9003 19.0838 10.7007 19.0552 10.5038ZM4.94609 10.5038C4.94835 10.4754 4.96231 10.4486 4.9853 10.4288C5.00829 10.409 5.03868 10.3974 5.07065 10.3963C5.54519 10.3813 6.02696 10.4114 6.88161 10.636C7.31764 10.7495 7.72709 10.9323 8.09025 11.1756C8.18187 11.2393 8.14932 11.4117 8.0344 11.4299C7.32996 11.5036 6.62131 11.5407 5.91204 11.541C5.48653 11.541 5.04735 11.4335 4.96578 11.0953C4.92419 10.9003 4.91755 10.7007 4.94609 10.5038Z" fill="white"/>
<path d="M19.0727 7.83301H19.7156M4.28613 7.83301H4.92903M4.84867 8.62467C4.84867 8.62467 6.71106 8.12467 12.0009 8.12467C17.2907 8.12467 19.1531 8.62467 19.1531 8.62467" stroke="white" stroke-width="0.8" stroke-linecap="round" stroke-linejoin="round"/>
</svg>
